<?xml version="1.0" encoding="UTF-8" standalone="no"?>
<!-- Creator: CorelDRAW 2019 (64-Bit) -->

<svg
   xmlns:dc="http://purl.org/dc/elements/1.1/"
   xmlns:cc="http://creativecommons.org/ns#"
   xmlns:rdf="http://www.w3.org/1999/02/22-rdf-syntax-ns#"
   xmlns:svg="http://www.w3.org/2000/svg"
   xmlns="http://www.w3.org/2000/svg"
   xmlns:xlink="http://www.w3.org/1999/xlink"
   xmlns:sodipodi="http://sodipodi.sourceforge.net/DTD/sodipodi-0.dtd"
   xmlns:inkscape="http://www.inkscape.org/namespaces/inkscape"
   xml:space="preserve"
   width="100%"
   height="100%"
   version="1.1"
   shape-rendering="geometricPrecision"
   text-rendering="geometricPrecision"
   image-rendering="optimizeQuality"
   fill-rule="evenodd"
   clip-rule="evenodd"
   viewBox="0 0 784.37 1277.39"
   id="svg19"
   sodipodi:docname="eth-logo.svg"
   inkscape:version="0.92.1 r15371"><metadata
     id="metadata25"><rdf:RDF><cc:Work
         rdf:about=""><dc:format>image/svg+xml</dc:format><dc:type
           rdf:resource="http://purl.org/dc/dcmitype/StillImage" /></cc:Work></rdf:RDF></metadata><defs
     id="defs23"><linearGradient
       inkscape:collect="always"
       id="linearGradient79"><stop
         style="stop-color:#0b1728;stop-opacity:1;"
         offset="0"
         id="stop75" /><stop
         style="stop-color:#0b1728;stop-opacity:0;"
         offset="1"
         id="stop77" /></linearGradient><linearGradient
       inkscape:collect="always"
       id="linearGradient71"><stop
         style="stop-color:#162d50;stop-opacity:1;"
         offset="0"
         id="stop67" /><stop
         style="stop-color:#162d50;stop-opacity:0;"
         offset="1"
         id="stop69" /></linearGradient><linearGradient
       inkscape:collect="always"
       id="linearGradient63"><stop
         style="stop-color:#aa0088;stop-opacity:1;"
         offset="0"
         id="stop59" /><stop
         style="stop-color:#aa0088;stop-opacity:0;"
         offset="1"
         id="stop61" /></linearGradient><linearGradient
       inkscape:collect="always"
       id="linearGradient55"><stop
         style="stop-color:#800066;stop-opacity:1;"
         offset="0"
         id="stop51" /><stop
         style="stop-color:#800066;stop-opacity:0;"
         offset="1"
         id="stop53" /></linearGradient><linearGradient
       inkscape:collect="always"
       xlink:href="#linearGradient55"
       id="linearGradient57"
       x1="133.95674"
       y1="209.56345"
       x2="59.323696"
       y2="749.21771"
       gradientUnits="userSpaceOnUse" /><linearGradient
       inkscape:collect="always"
       xlink:href="#linearGradient63"
       id="linearGradient65"
       x1="128.21573"
       y1="196.16777"
       x2="398.04288"
       y2="726.25372"
       gradientUnits="userSpaceOnUse" /><linearGradient
       inkscape:collect="always"
       xlink:href="#linearGradient71"
       id="linearGradient73"
       x1="342.54651"
       y1="789.40472"
       x2="244.94945"
       y2="961.63477"
       gradientUnits="userSpaceOnUse" /><linearGradient
       inkscape:collect="always"
       xlink:href="#linearGradient79"
       id="linearGradient81"
       x1="455.45291"
       y1="693.72137"
       x2="660.21533"
       y2="898.48383"
       gradientUnits="userSpaceOnUse" /></defs><sodipodi:namedview
     pagecolor="#ffffff"
     bordercolor="#666666"
     borderopacity="1"
     objecttolerance="10"
     gridtolerance="10"
     guidetolerance="10"
     inkscape:pageopacity="0"
     inkscape:pageshadow="2"
     inkscape:window-width="1920"
     inkscape:window-height="1051"
     id="namedview21"
     showgrid="false"
     inkscape:zoom="0.26127839"
     inkscape:cx="-635.42867"
     inkscape:cy="908.10556"
     inkscape:window-x="-9"
     inkscape:window-y="-9"
     inkscape:window-maximized="1"
     inkscape:current-layer="svg19" /><g
     id="Layer_x0020_1"><metadata
       id="CorelCorpID_0Corel-Layer" /><g
       id="_1421394342400"><g
         id="g15"><polygon
           fill="#343434"
           fill-rule="nonzero"
           points="392.07,0 383.5,29.11 383.5,873.74 392.07,882.29 784.13,650.54 "
           id="polygon3" /><polygon
           fill="#8C8C8C"
           fill-rule="nonzero"
           points="392.07,0 -0,650.54 392.07,882.29 392.07,472.33 "
           id="polygon5" /><polygon
           fill="#3C3C3B"
           fill-rule="nonzero"
           points="392.07,956.52 387.24,962.41 387.24,1263.28 392.07,1277.38 784.37,724.89 "
           id="polygon7" /><polygon
           fill="#8C8C8C"
           fill-rule="nonzero"
           points="392.07,1277.38 392.07,956.52 -0,724.89 "
           id="polygon9" /><polygon
           fill="#141414"
           fill-rule="nonzero"
           points="392.07,882.29 784.13,650.54 392.07,472.33 "
           id="polygon11" /><polygon
           fill="#393939"
           fill-rule="nonzero"
           points="0,650.54 392.07,882.29 392.07,472.33 "
           id="polygon13" /></g></g></g><path
     style="fill:#800080;stroke-width:1.35316741"
     d="M 6.9441707,639.95976 C 10.067113,634.86157 97.558713,489.72411 201.36996,317.43208 305.18118,145.14004 390.34207,3.9201103 390.61635,3.6100094 390.89064,3.2999086 391.10701,108.64399 391.09717,237.70796 l -0.0179,234.66178 -193.57864,87.95588 C 91.032401,608.70135 3.3244333,648.49473 2.5940546,648.75535 c -0.7303789,0.26062 1.2271734,-3.69739 4.3501161,-8.79559 z"
     id="path27"
     inkscape:connector-curvature="0" /><path
     style="fill:#2b0000;stroke-width:1.35316741"
     d="M 586.34913,560.52569 392.54757,472.36974 392.5079,237.66286 C 392.4857,106.3325 392.98147,3.5221803 393.6335,4.2414875 394.4266,5.1164305 769.54414,627.27297 781.74129,647.94321 c 0.32938,0.55818 0.10622,0.95267 -0.49587,0.87665 -0.6021,-0.076 -88.30544,-39.8084 -194.89629,-88.29417 z"
     id="path29"
     inkscape:connector-curvature="0" /><path
     style="fill:#668000;stroke-width:1.35316741"
     d="M 197.28305,1001.8995 C 91.048145,852.17745 4.370729,729.43553 4.6665702,729.13969 4.9624114,728.84385 92.034348,779.89378 198.15977,842.58398 l 192.95529,113.98217 v 158.77765 c 0,87.3277 -0.15247,158.7776 -0.33882,158.7776 -0.18634,0 -87.25828,-122.4999 -193.49319,-272.2219 z"
     id="path31"
     inkscape:connector-curvature="0" /><path
     style="fill:#445500;stroke-width:1.35316741"
     d="m 392.51259,1115.4625 0.0444,-158.65884 193.52461,-114.16385 c 106.43853,-62.79012 193.7178,-113.93984 193.95394,-113.66606 0.23614,0.27379 -38.3081,55.00973 -85.65386,121.63544 -47.34577,66.62571 -134.386,189.17191 -193.42274,272.32491 -59.03674,83.153 -107.59853,151.1873 -107.9151,151.1873 -0.31656,0 -0.55561,-71.3965 -0.53121,-158.6589 z"
     id="path33"
     inkscape:connector-curvature="0" /><path
     style="fill:#00d455;stroke-width:1.35316741"
     d="M 378.37536,1255.9597 C 326.2807,1183.0419 65.389137,815.09824 21.378325,752.47539 13.532619,741.31176 7.3105162,731.96449 7.5514293,731.70368 8.0319699,731.18345 61.167645,762.25179 207.76088,848.76581 c 52.84119,31.18495 115.6969,68.25095 139.67934,82.36889 l 43.60445,25.66896 -0.12375,144.11234 c -0.0681,79.2618 -0.50891,149.9448 -0.97968,157.0735 l -0.85593,12.9611 z"
     id="path35"
     inkscape:connector-curvature="0" /><path
     style="fill:#008033;stroke-width:1.35316741"
     d="m 393.34851,1268.4752 c -0.46383,-1.7322 -0.82965,-72.5669 -0.81294,-157.4105 l 0.0304,-154.26104 63.21171,-37.16919 c 34.76643,-20.44305 112.11635,-65.96442 171.8887,-101.15859 133.05513,-78.34333 150.45455,-88.45468 150.45455,-87.43388 0,1.57636 -377.55381,533.7334 -382.25717,538.7864 -1.36872,1.4704 -1.82487,1.225 -2.51525,-1.3532 z"
     id="path37"
     inkscape:connector-curvature="0" /><path
     style="fill:url(#linearGradient73);stroke-width:1.35316741;fill-opacity:1"
     d="M 303.15918,1149.2073 C 210.89303,1019.2558 32.02179,766.74382 18.05347,746.72443 c -4.803406,-6.88424 -8.2296911,-12.5168 -7.613968,-12.5168 1.772178,0 80.36313,46.04688 335.344458,196.4802 l 44.65452,26.34517 -0.55105,152.7932 c -0.30308,84.0363 -0.91201,154.0767 -1.35317,155.6453 -0.6362,2.262 -18.29523,-21.7861 -85.37508,-116.2642 z"
     id="path39"
     inkscape:connector-curvature="0" /><path
     style="fill:url(#linearGradient81);stroke-width:1.35316741;fill-opacity:1"
     d="m 393.21915,1202.0459 c -0.50783,-37.3875 -0.73231,-107.8354 -0.49884,-156.5509 l 0.4245,-88.57356 150.20158,-88.38094 C 742.79811,751.18002 774.41206,732.75404 775.11426,733.45623 c 0.70585,0.70586 -7.27919,12.11327 -111.82192,159.74856 -165.07872,233.12431 -266.15233,374.96581 -268.01296,376.11571 -0.62529,0.3865 -1.5524,-29.8871 -2.06023,-67.2746 z"
     id="path41"
     inkscape:connector-curvature="0" /><path
     style="fill:#162d50;stroke-width:1.35316741"
     d="M 196.74211,766.24599 C 89.464858,702.85401 1.9208418,650.74512 2.1998483,650.44846 3.1923176,649.39321 391.6373,473.11751 392.05336,473.53357 c 0.23302,0.23301 0.26945,92.12171 0.0809,204.19711 l -0.34263,203.77348 z"
     id="path43"
     inkscape:connector-curvature="0" /><path
     style="fill:#0b1728;stroke-width:1.35316741"
     d="m 392.46823,677.15018 c 0,-194.04872 0.12014,-204.38413 2.36804,-203.7223 2.24466,0.66086 348.01203,157.67333 359.75245,163.36308 3.05848,1.48222 6.25534,2.69495 7.10412,2.69495 0.84879,0 1.54325,0.60893 1.54325,1.35317 0,0.74424 0.45669,1.22797 1.01488,1.07495 0.55818,-0.15301 2.96364,0.76038 5.34547,2.02976 2.38183,1.26938 5.27422,2.30796 6.42754,2.30796 1.15332,0 2.09695,0.60892 2.09695,1.35317 0,0.74424 0.76116,1.20093 1.69146,1.01487 10.04006,-2.008 -8.27812,9.01621 -372.79761,224.35649 l -14.54655,8.59339 z"
     id="path45"
     inkscape:connector-curvature="0" /><path
     style="fill:url(#linearGradient65);stroke-width:1.35316741;fill-opacity:1"
     d="M 4.7019917,645.30556 C 5.1937591,644.02403 66.551358,541.86991 141.05221,418.29639 215.55307,294.72287 301.83814,151.60141 332.79681,100.24871 l 56.2885,-93.3685461 0.99737,24.3570131 c 0.54856,13.396357 0.85302,118.098563 0.67658,232.671573 L 390.43848,472.22331 198.9653,559.20543 C 93.655045,607.04559 6.6631575,646.51336 5.6499906,646.91158 c -1.2917107,0.50769 -1.5749652,0.0279 -0.9479989,-1.60602 z"
     id="path47"
     inkscape:connector-curvature="0" /><path
     style="fill:url(#linearGradient57);stroke-width:1.35316741;fill-opacity:1"
     d="M 596.73281,564.64512 C 496.59723,519.10335 409.67314,479.60223 403.56817,476.86483 l -11.09994,-4.97709 0.17857,-196.64485 c 0.0982,-108.15466 0.55491,-212.936322 1.01488,-232.848116 l 0.8363,-36.2032607 81.86663,135.6397167 c 109.4122,181.27826 301.70257,500.44632 303.28868,503.40564 0.69805,1.30243 0.79107,2.33281 0.20671,2.28975 -0.58437,-0.043 -82.9916,-37.33973 -183.12719,-82.8815 z"
     id="path49"
     inkscape:connector-curvature="0" /></svg>